<svg xmlns="http://www.w3.org/2000/svg" viewBox="0 0 136.2 116.3"><defs><style>.cls-1{fill:#f3fcff;}.cls-2{fill:#4bb380;}.cls-3{fill:#f4961c;}.cls-4{fill:#d1344c;}</style></defs><title>Sfondo_Blu_Generale</title><g id="Layer_2" data-name="Layer 2"><g id="loghi"><rect class="cls-1" x="15.2" y="46.6" width="5.2" height="40.2"/><path class="cls-2" d="M50.2,43.8H18a2.8,2.8,0,0,0,0,5.6H50.2A2.8,2.8,0,0,0,53,46.6,2.86,2.86,0,0,0,50.2,43.8Z"/><path class="cls-3" d="M50.2,84H18a2.8,2.8,0,0,0,0,5.6H50.2a2.8,2.8,0,0,0,0-5.6Z"/><path class="cls-1" d="M125.7,17.1h-30V10.2A10.24,10.24,0,0,0,85.5,0H56.7A10.24,10.24,0,0,0,46.5,10.2v7H9.7A9.71,9.71,0,0,0,0,26.9v79.6a9.71,9.71,0,0,0,9.7,9.7H52.2a4.8,4.8,0,0,0,3-1.2l13.4-13.4c1.2-1.2,1.2-3.4,1.2-5.5h0V72.6h.6c5.1,0,11.1-3.6,12.2-8.4l48-.1v41.5a4.91,4.91,0,0,1-1.5,3.6,5,5,0,0,1-3.6,1.5H74.4a2.8,2.8,0,0,0,0,5.6h51.2a10.58,10.58,0,0,0,10.6-10.6v-78A10.52,10.52,0,0,0,125.7,17.1ZM5.2,106.5V26.9a4.65,4.65,0,0,1,4.6-4.6H60.2a4.65,4.65,0,0,1,4.6,4.6V94.7L52.4,95a3.9,3.9,0,0,0-3.9,3.9l-.3,12.2H9.8A4.65,4.65,0,0,1,5.2,106.5Zm48.1,3,.2-9.5,9.5-.2ZM77.9,61.9c-.4,5.9-7.6,5.6-7.6,5.6V58.8h4.9A3,3,0,0,1,77.9,61.9Zm5.2-3.1a2.49,2.49,0,0,1-.8-.1,8.15,8.15,0,0,0-7.5-4.9H69.9V26.9a9.71,9.71,0,0,0-9.7-9.7H51.6l.1-7a5,5,0,0,1,5-5H85.5a5,5,0,0,1,5,5v6.9h-16a2.8,2.8,0,1,0,0,5.6h51.1a5,5,0,0,1,5,5V58.6h.1Z"/><path class="cls-4" d="M44.8,69.4H18a2.86,2.86,0,0,1-2.8-2.8h0A2.86,2.86,0,0,1,18,63.8H44.8a2.86,2.86,0,0,1,2.8,2.8h0A2.86,2.86,0,0,1,44.8,69.4Z"/></g></g></svg>