<svg xmlns="http://www.w3.org/2000/svg" viewBox="0 0 134.8 118.6"><defs><style>.cls-1{fill:#81b2e1;}.cls-2{fill:#f4961c;}.cls-3{fill:#d2344d;}.cls-4{fill:#4bb380;}</style></defs><title>Studente_Azzurro</title><g id="Layer_2" data-name="Layer 2"><g id="loghi"><path class="cls-1" d="M52.1,46.2H18.2a2.8,2.8,0,0,0,0,5.6H52.1a2.8,2.8,0,0,0,0-5.6Z"/><path class="cls-1" d="M52.1,86.4H18.2a2.8,2.8,0,0,0,0,5.6H52.1a2.8,2.8,0,1,0,0-5.6Z"/><path class="cls-1" d="M52.1,66.2H18.2a2.8,2.8,0,0,0,0,5.6H52.1a2.8,2.8,0,0,0,0-5.6Z"/><path class="cls-2" d="M116.9,46.2H83a2.8,2.8,0,0,0,0,5.6h33.9a2.8,2.8,0,0,0,2.8-2.8h0A2.86,2.86,0,0,0,116.9,46.2Z"/><path class="cls-3" d="M116.9,86.4H83A2.8,2.8,0,1,0,83,92h33.9a2.8,2.8,0,0,0,2.8-2.8h0A2.86,2.86,0,0,0,116.9,86.4Z"/><path class="cls-4" d="M116.9,66.2H83a2.8,2.8,0,0,0,0,5.6h33.9a2.8,2.8,0,0,0,2.8-2.8h0A2.86,2.86,0,0,0,116.9,66.2Z"/><path class="cls-1" d="M125.1,19.6H74.6a9.68,9.68,0,0,0-7.2,3.2,9.52,9.52,0,0,0-7.2-3.2H9.7A9.72,9.72,0,0,0,0,29.3v79.6a9.72,9.72,0,0,0,9.7,9.7H60.1a9.68,9.68,0,0,0,7.2-3.2,9.52,9.52,0,0,0,7.2,3.2h50.6a9.72,9.72,0,0,0,9.7-9.7V29.3a9.65,9.65,0,0,0-9.6-9.7ZM60.4,113.5H10a4.65,4.65,0,0,1-4.6-4.6V29.3A4.65,4.65,0,0,1,10,24.7H60.39A4.65,4.65,0,0,1,65,29.3v79.6a4.59,4.59,0,0,1-4.58,4.6h0Zm69.3-4.6a4.65,4.65,0,0,1-4.6,4.6H74.7a4.65,4.65,0,0,1-4.6-4.6h0V29.3h0a4.65,4.65,0,0,1,4.6-4.6h50.4a4.65,4.65,0,0,1,4.6,4.6Z"/><path class="cls-1" d="M86.2,0H48.8a3.09,3.09,0,0,0-1.3.3L36.8,6.1a2.17,2.17,0,0,0,0,3.8l10.7,5.8a2.79,2.79,0,0,0,1.3.3H85.9a8.17,8.17,0,0,0,8.3-7.2A8,8,0,0,0,87,0,7.87,7.87,0,0,0,86.2,0Zm2.9,8.5a3,3,0,0,1-3,2.4H51.2c-4.9-.2-4.3-5.8,0-5.8H86.3a2.91,2.91,0,0,1,2.84,3,3,3,0,0,1,0,.42Z"/></g></g></svg>