<svg xmlns="http://www.w3.org/2000/svg" viewBox="0 0 141.4 102.6"><defs><style>.cls-1{fill:#4bb380;}.cls-2{fill:#d2344d;}.cls-3{fill:#2765ad;}.cls-4{fill:#f4961c;}</style></defs><title>Transparent_Scuola</title><g id="Layer_2" data-name="Layer 2"><g id="loghi"><path class="cls-1" d="M58.6,33.3H51.9A1.32,1.32,0,0,1,50.6,32V25.3A1.32,1.32,0,0,1,51.9,24h6.7a1.32,1.32,0,0,1,1.3,1.3V32A1.32,1.32,0,0,1,58.6,33.3Z"/><path class="cls-2" d="M89.6,33.3H82.9A1.32,1.32,0,0,1,81.6,32V25.3A1.32,1.32,0,0,1,82.9,24h6.7a1.32,1.32,0,0,1,1.3,1.3V32A1.32,1.32,0,0,1,89.6,33.3Z"/><path class="cls-3" d="M74.1,33.1H67.4a1.32,1.32,0,0,1-1.3-1.3V25.1a1.32,1.32,0,0,1,1.3-1.3h6.7a1.32,1.32,0,0,1,1.3,1.3v6.7A1.32,1.32,0,0,1,74.1,33.1Z"/><path class="cls-3" d="M58.6,49.5H51.9a1.32,1.32,0,0,1-1.3-1.3V41.5a1.32,1.32,0,0,1,1.3-1.3h6.7a1.32,1.32,0,0,1,1.3,1.3v6.7A1.32,1.32,0,0,1,58.6,49.5Z"/><path class="cls-3" d="M89.6,49.5H82.9a1.32,1.32,0,0,1-1.3-1.3V41.5a1.32,1.32,0,0,1,1.3-1.3h6.7a1.32,1.32,0,0,1,1.3,1.3v6.7A1.32,1.32,0,0,1,89.6,49.5Z"/><path class="cls-4" d="M74.1,49.3H67.4A1.32,1.32,0,0,1,66.1,48V41.3A1.32,1.32,0,0,1,67.4,40h6.7a1.32,1.32,0,0,1,1.3,1.3V48A1.32,1.32,0,0,1,74.1,49.3Z"/><path class="cls-3" d="M27.2,70.1v6.7a1.32,1.32,0,0,1-1.3,1.3H19.2a1.32,1.32,0,0,1-1.3-1.3V70.1a1.32,1.32,0,0,1,1.3-1.3h6.7A1.4,1.4,0,0,1,27.2,70.1Z"/><path class="cls-3" d="M27.2,39.1v6.7a1.32,1.32,0,0,1-1.3,1.3H19.2a1.32,1.32,0,0,1-1.3-1.3V39.1a1.32,1.32,0,0,1,1.3-1.3h6.7A1.32,1.32,0,0,1,27.2,39.1Z"/><path class="cls-3" d="M27,54.6v6.7a1.32,1.32,0,0,1-1.3,1.3H19a1.32,1.32,0,0,1-1.3-1.3V54.6A1.32,1.32,0,0,1,19,53.3h6.7A1.4,1.4,0,0,1,27,54.6Z"/><path class="cls-3" d="M123.9,70.1v6.7a1.32,1.32,0,0,1-1.3,1.3h-6.7a1.32,1.32,0,0,1-1.3-1.3V70.1a1.32,1.32,0,0,1,1.3-1.3h6.7A1.4,1.4,0,0,1,123.9,70.1Z"/><path class="cls-3" d="M123.9,39.1v6.7a1.32,1.32,0,0,1-1.3,1.3h-6.7a1.32,1.32,0,0,1-1.3-1.3V39.1a1.32,1.32,0,0,1,1.3-1.3h6.7A1.32,1.32,0,0,1,123.9,39.1Z"/><path class="cls-3" d="M123.7,54.6v6.7a1.32,1.32,0,0,1-1.3,1.3h-6.7a1.32,1.32,0,0,1-1.3-1.3V54.6a1.32,1.32,0,0,1,1.3-1.3h6.7A1.4,1.4,0,0,1,123.7,54.6Z"/><path class="cls-3" d="M141.3,16.4a4.87,4.87,0,0,0-4.8-4.8H104.7a4.75,4.75,0,0,0,3.2-4.5V4.8A4.87,4.87,0,0,0,103.1,0H38.9a4.87,4.87,0,0,0-4.8,4.8V7.1a4.79,4.79,0,0,0,3.2,4.5H4.8A4.87,4.87,0,0,0,0,16.4v2.3a4.91,4.91,0,0,0,1.5,3.5V91.3a11.36,11.36,0,0,0,3.3,8,11.12,11.12,0,0,0,7.9,3.3H128.9a11.12,11.12,0,0,0,7.9-3.3,11.36,11.36,0,0,0,3.3-8V22a4.87,4.87,0,0,0,1.3-3.3l-.1-2.3ZM12.8,96.6A4.64,4.64,0,0,1,9,95a5.46,5.46,0,0,1-1.6-3.8V23.4H37.6V96.5Zm70,0H57.9V72.7A3.12,3.12,0,0,1,61,69.6H79.7a3.12,3.12,0,0,1,3.1,3.1Zm5,0V72.7a8.07,8.07,0,0,0-8.1-8.1H60.8a8.07,8.07,0,0,0-8.1,8.1V96.6H43.5v-85H98.1V96.7H87.8Zm46.4-55.4v50a5.46,5.46,0,0,1-1.6,3.8,5.34,5.34,0,0,1-3.8,1.6H104V23.4h30.2V41.2Z"/></g></g></svg>