<svg xmlns="http://www.w3.org/2000/svg" viewBox="0 0 129.1 115"><defs><style>.cls-1{fill:#2765ad;}.cls-2{fill:#4bb380;}.cls-3{fill:#f4961c;}.cls-4{fill:#d2344d;}</style></defs><title>Transparent_Ente</title><g id="Layer_2" data-name="Layer 2"><g id="loghi"><path class="cls-1" d="M118.6,16.9H88.9V10.1A10.14,10.14,0,0,0,78.8,0H50.3A10.14,10.14,0,0,0,40.2,10.1v6.8H10.5A10.5,10.5,0,0,0,0,27.4v77.2A10.2,10.2,0,0,0,3.1,112a10.27,10.27,0,0,0,7.4,3H118.6a10.7,10.7,0,0,0,7.4-3,10.37,10.37,0,0,0,3.1-7.4V27.4A10.5,10.5,0,0,0,118.6,16.9ZM45.3,14.6V10.1a5,5,0,0,1,5-5H78.8a5,5,0,0,1,5,5v4.5a20.15,20.15,0,0,1,.1,2.3H45.3ZM123.8,58h-.2l-45.8.2h0v5.4l45.9-.1v41.1h-.1a5,5,0,0,1-5,4.9H10.6a4.51,4.51,0,0,1-3.5-1.4,4.69,4.69,0,0,1-1.5-3.5V63.5l45.9.1V58.2L5.7,58V27.4a5,5,0,0,1,5-5H118.8a5,5,0,0,1,5,5Z"/><path class="cls-2" d="M28.5,49.6H16a2.9,2.9,0,0,1-2.9-2.9h0A2.9,2.9,0,0,1,16,43.8H28.5a2.9,2.9,0,0,1,2.9,2.9h0A3,3,0,0,1,28.5,49.6Z"/><path class="cls-3" d="M61.8,71.9h5.7a10.61,10.61,0,0,0,10.3-8.3V58.2h0a8.67,8.67,0,0,0-7.8-5H59.3a8.67,8.67,0,0,0-7.8,5v5.4A10.7,10.7,0,0,0,61.8,71.9ZM58.9,58.2H70.3a2.81,2.81,0,0,1,2.7,3c-.3,5.3-6.3,5.6-7,5.6H63.4s-6.8.2-7.2-5.6A2.81,2.81,0,0,1,58.9,58.2Z"/><path class="cls-4" d="M113.3,49.6H100.8a2.9,2.9,0,0,1-2.9-2.9h0a2.9,2.9,0,0,1,2.9-2.9h12.5a2.9,2.9,0,0,1,2.9,2.9h0A2.9,2.9,0,0,1,113.3,49.6Z"/></g></g></svg>