<svg xmlns="http://www.w3.org/2000/svg" width="30" height="30" viewBox="0 0 30 30"><defs><style>.a{fill:#06c;}.b{fill:#fff;}</style></defs><g transform="translate(-2 -2)"><circle class="a" cx="15" cy="15" r="15" transform="translate(2 2)"/><rect class="b" width="1.8" height="2.7" transform="translate(15.05 24.2)"/><path class="b" d="M18.45,10.213a8.494,8.494,0,0,1-.45,2.7,8.559,8.559,0,0,1-1.95,2.1l-2.1,1.95a4.264,4.264,0,0,0-.6,1.8v.9H12a5.329,5.329,0,0,1-.3-1.5,2.768,2.768,0,0,1,.75-1.8,13.9,13.9,0,0,1,2.1-2.1,7.342,7.342,0,0,0,1.8-1.95,4.791,4.791,0,0,0,.45-2.1,2.723,2.723,0,0,0-.9-2.1,5.166,5.166,0,0,0-3-.6l-3.45.45H8.7v-1.2a15.71,15.71,0,0,1,4.5-.75,6.468,6.468,0,0,1,4.05.9A3.666,3.666,0,0,1,18.45,10.213Z" transform="translate(3.35 1.987)"/></g></svg>